<mxfile host="65bd71144e">
    <diagram id="wWjZXtJfqwMmmUz9Kp7y" name="Page-1">
        <mxGraphModel dx="645" dy="385" grid="1" gridSize="10" guides="1" tooltips="1" connect="1" arrows="1" fold="1" page="1" pageScale="1" pageWidth="850" pageHeight="1100" math="0" shadow="0">
            <root>
                <mxCell id="0"/>
                <mxCell id="1" parent="0"/>
                <mxCell id="8" style="edgeStyle=none;html=1;exitX=1;exitY=1;exitDx=0;exitDy=0;" edge="1" parent="1" source="2" target="3">
                    <mxGeometry relative="1" as="geometry"/>
                </mxCell>
                <mxCell id="9" style="edgeStyle=none;html=1;exitX=1;exitY=0;exitDx=0;exitDy=0;entryX=0;entryY=0;entryDx=0;entryDy=0;" edge="1" parent="1" source="2" target="4">
                    <mxGeometry relative="1" as="geometry"/>
                </mxCell>
                <mxCell id="2" value="USD" style="ellipse;whiteSpace=wrap;html=1;" vertex="1" parent="1">
                    <mxGeometry x="210" y="300" width="40" height="40" as="geometry"/>
                </mxCell>
                <mxCell id="11" style="edgeStyle=none;html=1;exitX=0;exitY=1;exitDx=0;exitDy=0;entryX=0;entryY=1;entryDx=0;entryDy=0;" edge="1" parent="1" source="3" target="2">
                    <mxGeometry relative="1" as="geometry"/>
                </mxCell>
                <mxCell id="13" style="edgeStyle=none;html=1;exitX=1;exitY=0;exitDx=0;exitDy=0;entryX=0;entryY=1;entryDx=0;entryDy=0;" edge="1" parent="1" source="3" target="4">
                    <mxGeometry relative="1" as="geometry"/>
                </mxCell>
                <mxCell id="3" value="ETH" style="ellipse;whiteSpace=wrap;html=1;" vertex="1" parent="1">
                    <mxGeometry x="265" y="350" width="40" height="40" as="geometry"/>
                </mxCell>
                <mxCell id="10" style="edgeStyle=none;html=1;exitX=0;exitY=1;exitDx=0;exitDy=0;entryX=1;entryY=1;entryDx=0;entryDy=0;" edge="1" parent="1" source="4" target="2">
                    <mxGeometry relative="1" as="geometry"/>
                </mxCell>
                <mxCell id="14" style="edgeStyle=none;html=1;exitX=1;exitY=1;exitDx=0;exitDy=0;entryX=1;entryY=1;entryDx=0;entryDy=0;" edge="1" parent="1" source="4" target="3">
                    <mxGeometry relative="1" as="geometry"/>
                </mxCell>
                <mxCell id="4" value="BTC" style="ellipse;whiteSpace=wrap;html=1;" vertex="1" parent="1">
                    <mxGeometry x="305" y="300" width="40" height="40" as="geometry"/>
                </mxCell>
                <mxCell id="15" value="&lt;h3 style=&quot;&quot;&gt;Realized cashflows - trades&lt;/h3&gt;&lt;div&gt;&lt;br&gt;&lt;/div&gt;&lt;p style=&quot;&quot;&gt;&lt;span style=&quot;background-color: initial;&quot;&gt;Spot - edge attribute&lt;/span&gt;&lt;/p&gt;&lt;ul&gt;&lt;li&gt;volume&lt;/li&gt;&lt;li&gt;count / gini&lt;/li&gt;&lt;/ul&gt;Funding / Future- node attribute&lt;br&gt;&lt;ul&gt;&lt;li&gt;volume&lt;/li&gt;&lt;li&gt;count / gini&lt;/li&gt;&lt;li&gt;period&lt;/li&gt;&lt;li&gt;rate?&lt;/li&gt;&lt;img style=&quot;width: 18px; height: 28px; padding: 0px; position: absolute; cursor: copy; left: 761px; top: 375px; opacity: 0.15; visibility: visible; display: none;&quot; title=&quot;Click to connect and clone (ctrl+click to clone, shift+click to connect). Drag to connect (ctrl+drag to clone).&quot; border=&quot;0&quot; src=&quot;data:image/svg+xml;base64,PCFET0NUWVBFIHN2ZyBQVUJMSUMgIi0vL1czQy8vRFREIFNWRyAxLjEvL0VOIiAiaHR0cDovL3d3dy53My5vcmcvR3JhcGhpY3MvU1ZHLzEuMS9EVEQvc3ZnMTEuZHRkIj48c3ZnIHhtbG5zPSJodHRwOi8vd3d3LnczLm9yZy8yMDAwL3N2ZyIgeG1sbnM6eGxpbms9Imh0dHA6Ly93d3cudzMub3JnLzE5OTkveGxpbmsiIHdpZHRoPSIxOHB4IiBoZWlnaHQ9IjI4cHgiIHZlcnNpb249IjEuMSI+PHBhdGggZD0ibSA2IDI2IEwgMTIgMjYgTCAxMiAxMiBMIDE4IDEyIEwgOSAxIEwgMSAxMiBMIDYgMTIgeiIgc3Ryb2tlPSIjZmZmIiBmaWxsPSIjMjliNmYyIi8+PC9zdmc+&quot;&gt;&lt;img style=&quot;width: 18px; height: 26px; padding: 0px; position: absolute; cursor: copy; left: 761px; top: 684px; opacity: 0.15; visibility: visible; display: none;&quot; title=&quot;Click to connect and clone (ctrl+click to clone, shift+click to connect). Drag to connect (ctrl+drag to clone).&quot; border=&quot;0&quot; src=&quot;data:image/svg+xml;base64,PCFET0NUWVBFIHN2ZyBQVUJMSUMgIi0vL1czQy8vRFREIFNWRyAxLjEvL0VOIiAiaHR0cDovL3d3dy53My5vcmcvR3JhcGhpY3MvU1ZHLzEuMS9EVEQvc3ZnMTEuZHRkIj48c3ZnIHhtbG5zPSJodHRwOi8vd3d3LnczLm9yZy8yMDAwL3N2ZyIgeG1sbnM6eGxpbms9Imh0dHA6Ly93d3cudzMub3JnLzE5OTkveGxpbmsiIHdpZHRoPSIxOHB4IiBoZWlnaHQ9IjI2cHgiIHZlcnNpb249IjEuMSI+PHBhdGggZD0ibSA2IDEgTCA2IDE0IEwgMSAxNCBMIDkgMjYgTCAxOCAxNCBMIDEyIDE0IEwgMTIgMSB6IiBzdHJva2U9IiNmZmYiIGZpbGw9IiMyOWI2ZjIiLz48L3N2Zz4=&quot;&gt;&lt;img style=&quot;width: 26px; height: 18px; padding: 0px; position: absolute; cursor: copy; left: 901px; top: 534px; opacity: 0.15; visibility: visible; display: none;&quot; title=&quot;Click to connect and clone (ctrl+click to clone, shift+click to connect). Drag to connect (ctrl+drag to clone).&quot; border=&quot;0&quot; src=&quot;data:image/svg+xml;base64,PCFET0NUWVBFIHN2ZyBQVUJMSUMgIi0vL1czQy8vRFREIFNWRyAxLjEvL0VOIiAiaHR0cDovL3d3dy53My5vcmcvR3JhcGhpY3MvU1ZHLzEuMS9EVEQvc3ZnMTEuZHRkIj48c3ZnIHhtbG5zPSJodHRwOi8vd3d3LnczLm9yZy8yMDAwL3N2ZyIgeG1sbnM6eGxpbms9Imh0dHA6Ly93d3cudzMub3JnLzE5OTkveGxpbmsiIHdpZHRoPSIyNnB4IiBoZWlnaHQ9IjE4cHgiIHZlcnNpb249IjEuMSI+PHBhdGggZD0ibSAxIDYgTCAxNCA2IEwgMTQgMSBMIDI2IDkgTCAxNCAxOCBMIDE0IDEyIEwgMSAxMiB6IiBzdHJva2U9IiNmZmYiIGZpbGw9IiMyOWI2ZjIiLz48L3N2Zz4=&quot;&gt;&lt;img style=&quot;width: 28px; height: 18px; padding: 0px; position: absolute; cursor: copy; left: 612px; top: 534px; opacity: 0.15; visibility: visible; display: none;&quot; title=&quot;Click to connect and clone (ctrl+click to clone, shift+click to connect). Drag to connect (ctrl+drag to clone).&quot; border=&quot;0&quot; src=&quot;data:image/svg+xml;base64,PCFET0NUWVBFIHN2ZyBQVUJMSUMgIi0vL1czQy8vRFREIFNWRyAxLjEvL0VOIiAiaHR0cDovL3d3dy53My5vcmcvR3JhcGhpY3MvU1ZHLzEuMS9EVEQvc3ZnMTEuZHRkIj48c3ZnIHhtbG5zPSJodHRwOi8vd3d3LnczLm9yZy8yMDAwL3N2ZyIgeG1sbnM6eGxpbms9Imh0dHA6Ly93d3cudzMub3JnLzE5OTkveGxpbmsiIHdpZHRoPSIyOHB4IiBoZWlnaHQ9IjE4cHgiIHZlcnNpb249IjEuMSI+PHBhdGggZD0ibSAxIDkgTCAxMiAxIEwgMTIgNiBMIDI2IDYgTCAyNiAxMiBMIDEyIDEyIEwgMTIgMTggeiIgc3Ryb2tlPSIjZmZmIiBmaWxsPSIjMjliNmYyIi8+PC9zdmc+&quot;&gt;&lt;/ul&gt;&lt;div style=&quot;left: 212px; bottom: 0px; right: 240px; height: 36px;&quot; class=&quot;geTabContainer geTabItem&quot;&gt;&lt;div style=&quot;width: 30px;&quot; title=&quot;Pages&quot; class=&quot;geTab geControlTab&quot;&gt;&lt;div style=&quot;background-image: url(&amp;quot;data:image/svg+xml;base64,PHN2ZyB4bWxucz0iaHR0cDovL3d3dy53My5vcmcvMjAwMC9zdmciIGhlaWdodD0iMThweCIgdmlld0JveD0iMCAwIDI0IDI0IiB3aWR0aD0iMThweCIgZmlsbD0iIzAwMDAwMCI+PHBhdGggZD0iTTAgMGgyNHYyNEgwVjB6IiBmaWxsPSJub25lIi8+PHBhdGggZD0iTTEyIDhjMS4xIDAgMi0uOSAyLTJzLS45LTItMi0yLTIgLjktMiAyIC45IDIgMiAyem0wIDJjLTEuMSAwLTIgLjktMiAycy45IDIgMiAyIDItLjkgMi0yLS45LTItMi0yem0wIDZjLTEuMSAwLTIgLjktMiAycy45IDIgMiAyIDItLjkgMi0yLS45LTItMi0yeiIvPjwvc3ZnPg==&amp;quot;); background-repeat: no-repeat; background-position: center center; background-size: 24px; position: relative; opacity: 0.5; width: 100%; height: 100%;&quot; class=&quot;geAdaptiveAsset&quot;&gt;&lt;/div&gt;&lt;/div&gt;&lt;div class=&quot;geTabScroller&quot;&gt;&lt;div draggable=&quot;true&quot; title=&quot;Page-1 (wWjZXtJfqwMmmUz9Kp7y) [1]&quot; class=&quot;geTab gePageTab geActivePage&quot;&gt;&lt;span&gt;Page-1&lt;/span&gt;&lt;div style=&quot;background-image: url(&amp;quot;data:image/svg+xml;base64,PCFET0NUWVBFIHN2ZyBQVUJMSUMgIi0vL1czQy8vRFREIFNWRyAxLjEvL0VOIiAiaHR0cDovL3d3dy53My5vcmcvR3JhcGhpY3MvU1ZHLzEuMS9EVEQvc3ZnMTEuZHRkIj48c3ZnIHhtbG5zPSJodHRwOi8vd3d3LnczLm9yZy8yMDAwL3N2ZyIgeG1sbnM6eGxpbms9Imh0dHA6Ly93d3cudzMub3JnLzE5OTkveGxpbmsiIHdpZHRoPSIxNHB4IiBoZWlnaHQ9IjEwcHgiIHZlcnNpb249IjEuMSI+PHBhdGggZD0iTSAzIDcgTCA3IDMgTCAxMSA3IiBzdHJva2U9IiM3MDcwNzAiIHN0cm9rZS13aWR0aD0iMiIgZmlsbD0ibm9uZSIvPjwvc3ZnPg==&amp;quot;); background-position: center center; background-repeat: no-repeat; background-size: 10px;&quot; class=&quot;geTabMenuButton&quot;&gt;&lt;/div&gt;&lt;/div&gt;&lt;/div&gt;&lt;div style=&quot;width: 30px;&quot; title=&quot;Insert Page&quot; class=&quot;geTab geControlTab&quot;&gt;&lt;div style=&quot;background-image: url(&amp;quot;data:image/svg+xml;base64,PHN2ZyB4bWxucz0iaHR0cDovL3d3dy53My5vcmcvMjAwMC9zdmciIHdpZHRoPSIyNCIgaGVpZ2h0PSIyNCIgdmlld0JveD0iMCAwIDI0IDI0Ij48cGF0aCBkPSJNMTkgMTNoLTZ2NmgtMnYtNkg1di0yaDZWNWgydjZoNnYyeiIvPjwvc3ZnPg==&amp;quot;); background-repeat: no-repeat; background-position: center center; background-size: 24px; position: relative; opacity: 0.5; width: 100%; height: 100%;&quot; class=&quot;geAdaptiveAsset&quot;&gt;&lt;/div&gt;&lt;/div&gt;&lt;div style=&quot;width: 30px; opacity: 0; transition: 0.2s linear;&quot; class=&quot;geTab geControlTab&quot;&gt;&lt;div style=&quot;background-image: url(&amp;quot;data:image/svg+xml;base64,PHN2ZyB4bWxucz0iaHR0cDovL3d3dy53My5vcmcvMjAwMC9zdmciIGhlaWdodD0iNDgiIHdpZHRoPSI0OCI+PHBhdGggZD0iTTI4LjA1IDM1LjMgMTYuNyAyMy45NSAyOC4wNSAxMi42bDEuNiAxLjY1LTkuNyA5LjcgOS43IDkuNzVaIi8+PC9zdmc+&amp;quot;); background-repeat: no-repeat; background-position: center center; background-size: 24px; position: relative; opacity: 0.5; width: 100%; height: 100%;&quot; class=&quot;geAdaptiveAsset&quot;&gt;&lt;/div&gt;&lt;/div&gt;&lt;div style=&quot;width: 30px; opacity: 0; transition: 0.2s linear;&quot; class=&quot;geTab geControlTab&quot;&gt;&lt;div style=&quot;background-image: url(&amp;quot;data:image/svg+xml;base64,PHN2ZyB4bWxucz0iaHR0cDovL3d3dy53My5vcmcvMjAwMC9zdmciIGhlaWdodD0iNDgiIHdpZHRoPSI0OCI+PHBhdGggZD0ibTE4Ljc1IDM1LjMtMS42LTEuNiA5LjctOS43NS05LjctOS43IDEuNi0xLjY1TDMwLjEgMjMuOTVaIi8+PC9zdmc+&amp;quot;); background-repeat: no-repeat; background-position: center center; background-size: 24px; position: relative; opacity: 0.5; width: 100%; height: 100%;&quot; class=&quot;geAdaptiveAsset&quot;&gt;&lt;/div&gt;&lt;/div&gt;&lt;/div&gt;&lt;div style=&quot;left: 0px; right: 0px; top: 30px; height: 38px;&quot; class=&quot;geToolbarContainer&quot;&gt;&lt;div class=&quot;geToolbar&quot;&gt;&lt;a style=&quot;position: relative; overflow: hidden; padding-right: 18px;&quot; title=&quot;Style&quot; class=&quot;geLabel&quot;&gt;Style&lt;img style=&quot;position: absolute; right: 1px; top: 5px;&quot; src=&quot;data:image/gif;base64,R0lGODlhDQANAIABAHt7e////yH/C1hNUCBEYXRhWE1QPD94cGFja2V0IGJlZ2luPSLvu78iIGlkPSJXNU0wTXBDZWhpSHpyZVN6TlRjemtjOWQiPz4gPHg6eG1wbWV0YSB4bWxuczp4PSJhZG9iZTpuczptZXRhLyIgeDp4bXB0az0iQWRvYmUgWE1QIENvcmUgNS4wLWMwNjAgNjEuMTM0Nzc3LCAyMDEwLzAyLzEyLTE3OjMyOjAwICAgICAgICAiPiA8cmRmOlJERiB4bWxuczpyZGY9Imh0dHA6Ly93d3cudzMub3JnLzE5OTkvMDIvMjItcmRmLXN5bnRheC1ucyMiPiA8cmRmOkRlc2NyaXB0aW9uIHJkZjphYm91dD0iIiB4bWxuczp4bXA9Imh0dHA6Ly9ucy5hZG9iZS5jb20veGFwLzEuMC8iIHhtbG5zOnhtcE1NPSJodHRwOi8vbnMuYWRvYmUuY29tL3hhcC8xLjAvbW0vIiB4bWxuczpzdFJlZj0iaHR0cDovL25zLmFkb2JlLmNvbS94YXAvMS4wL3NUeXBlL1Jlc291cmNlUmVmIyIgeG1wOkNyZWF0b3JUb29sPSJBZG9iZSBQaG90b3Nob3AgQ1M1IE1hY2ludG9zaCIgeG1wTU06SW5zdGFuY2VJRD0ieG1wLmlpZDpCREM1NkJFMjE0NEMxMUU1ODk1Q0M5MjQ0MTA4QjNDMSIgeG1wTU06RG9jdW1lbnRJRD0ieG1wLmRpZDpCREM1NkJFMzE0NEMxMUU1ODk1Q0M5MjQ0MTA4QjNDMSI+IDx4bXBNTTpEZXJpdmVkRnJvbSBzdFJlZjppbnN0YW5jZUlEPSJ4bXAuaWlkOkQzOUMzMjZCMTQ0QjExRTU4OTVDQzkyNDQxMDhCM0MxIiBzdFJlZjpkb2N1bWVudElEPSJ4bXAuZGlkOkQzOUMzMjZDMTQ0QjExRTU4OTVDQzkyNDQxMDhCM0MxIi8+IDwvcmRmOkRlc2NyaXB0aW9uPiA8L3JkZjpSREY+IDwveDp4bXBtZXRhPiA8P3hwYWNrZXQgZW5kPSJyIj8+Af/+/fz7+vn49/b19PPy8fDv7u3s6+rp6Ofm5eTj4uHg397d3Nva2djX1tXU09LR0M/OzczLysnIx8bFxMPCwcC/vr28u7q5uLe2tbSzsrGwr66trKuqqainpqWko6KhoJ+enZybmpmYl5aVlJOSkZCPjo2Mi4qJiIeGhYSDgoGAf359fHt6eXh3dnV0c3JxcG9ubWxramloZ2ZlZGNiYWBfXl1cW1pZWFdWVVRTUlFQT05NTEtKSUhHRkVEQ0JBQD8+PTw7Ojk4NzY1NDMyMTAvLi0sKyopKCcmJSQjIiEgHx4dHBsaGRgXFhUUExIREA8ODQwLCgkIBwYFBAMCAQAAIfkEAQAAAQAsAAAAAA0ADQAAAhGMj6nL3QAjVHIu6azbvPtWAAA7&quot; valign=&quot;middle&quot; border=&quot;0&quot;&gt;&lt;/a&gt;&lt;div class=&quot;geSeparator&quot;&gt;&lt;/div&gt;&lt;a style=&quot;position: relative; overflow: hidden; width: 68px; padding-right: 18px;&quot; title=&quot;Font Family&quot; class=&quot;geLabel&quot;&gt;&lt;div style=&quot;display: inline-block; overflow: hidden; text-overflow: ellipsis; max-width: 66px;&quot;&gt;Helvetica&lt;/div&gt;&lt;img style=&quot;position: absolute; right: 4px; top: 6px;&quot; src=&quot;data:image/gif;base64,R0lGODlhDQANAIABAHt7e////yH/C1hNUCBEYXRhWE1QPD94cGFja2V0IGJlZ2luPSLvu78iIGlkPSJXNU0wTXBDZWhpSHpyZVN6TlRjemtjOWQiPz4gPHg6eG1wbWV0YSB4bWxuczp4PSJhZG9iZTpuczptZXRhLyIgeDp4bXB0az0iQWRvYmUgWE1QIENvcmUgNS4wLWMwNjAgNjEuMTM0Nzc3LCAyMDEwLzAyLzEyLTE3OjMyOjAwICAgICAgICAiPiA8cmRmOlJERiB4bWxuczpyZGY9Imh0dHA6Ly93d3cudzMub3JnLzE5OTkvMDIvMjItcmRmLXN5bnRheC1ucyMiPiA8cmRmOkRlc2NyaXB0aW9uIHJkZjphYm91dD0iIiB4bWxuczp4bXA9Imh0dHA6Ly9ucy5hZG9iZS5jb20veGFwLzEuMC8iIHhtbG5zOnhtcE1NPSJodHRwOi8vbnMuYWRvYmUuY29tL3hhcC8xLjAvbW0vIiB4bWxuczpzdFJlZj0iaHR0cDovL25zLmFkb2JlLmNvbS94YXAvMS4wL3NUeXBlL1Jlc291cmNlUmVmIyIgeG1wOkNyZWF0b3JUb29sPSJBZG9iZSBQaG90b3Nob3AgQ1M1IE1hY2ludG9zaCIgeG1wTU06SW5zdGFuY2VJRD0ieG1wLmlpZDpCREM1NkJFMjE0NEMxMUU1ODk1Q0M5MjQ0MTA4QjNDMSIgeG1wTU06RG9jdW1lbnRJRD0ieG1wLmRpZDpCREM1NkJFMzE0NEMxMUU1ODk1Q0M5MjQ0MTA4QjNDMSI+IDx4bXBNTTpEZXJpdmVkRnJvbSBzdFJlZjppbnN0YW5jZUlEPSJ4bXAuaWlkOkQzOUMzMjZCMTQ0QjExRTU4OTVDQzkyNDQxMDhCM0MxIiBzdFJlZjpkb2N1bWVudElEPSJ4bXAuZGlkOkQzOUMzMjZDMTQ0QjExRTU4OTVDQzkyNDQxMDhCM0MxIi8+IDwvcmRmOkRlc2NyaXB0aW9uPiA8L3JkZjpSREY+IDwveDp4bXBtZXRhPiA8P3hwYWNrZXQgZW5kPSJyIj8+Af/+/fz7+vn49/b19PPy8fDv7u3s6+rp6Ofm5eTj4uHg397d3Nva2djX1tXU09LR0M/OzczLysnIx8bFxMPCwcC/vr28u7q5uLe2tbSzsrGwr66trKuqqainpqWko6KhoJ+enZybmpmYl5aVlJOSkZCPjo2Mi4qJiIeGhYSDgoGAf359fHt6eXh3dnV0c3JxcG9ubWxramloZ2ZlZGNiYWBfXl1cW1pZWFdWVVRTUlFQT05NTEtKSUhHRkVEQ0JBQD8+PTw7Ojk4NzY1NDMyMTAvLi0sKyopKCcmJSQjIiEgHx4dHBsaGRgXFhUUExIREA8ODQwLCgkIBwYFBAMCAQAAIfkEAQAAAQAsAAAAAA0ADQAAAhGMj6nL3QAjVHIu6azbvPtWAAA7&quot; valign=&quot;middle&quot; border=&quot;0&quot;&gt;&lt;/a&gt;&lt;div class=&quot;geSeparator&quot;&gt;&lt;/div&gt;&lt;a style=&quot;position: relative; overflow: hidden; width: 24px; padding-right: 18px;&quot; title=&quot;Font Size&quot; class=&quot;geLabel&quot;&gt;&lt;div style=&quot;display: inline-block; overflow: hidden; text-overflow: ellipsis; max-width: 24px;&quot;&gt;12&lt;/div&gt;&lt;img style=&quot;position: absolute; right: 4px; top: 6px;&quot; src=&quot;data:image/gif;base64,R0lGODlhDQANAIABAHt7e////yH/C1hNUCBEYXRhWE1QPD94cGFja2V0IGJlZ2luPSLvu78iIGlkPSJXNU0wTXBDZWhpSHpyZVN6TlRjemtjOWQiPz4gPHg6eG1wbWV0YSB4bWxuczp4PSJhZG9iZTpuczptZXRhLyIgeDp4bXB0az0iQWRvYmUgWE1QIENvcmUgNS4wLWMwNjAgNjEuMTM0Nzc3LCAyMDEwLzAyLzEyLTE3OjMyOjAwICAgICAgICAiPiA8cmRmOlJERiB4bWxuczpyZGY9Imh0dHA6Ly93d3cudzMub3JnLzE5OTkvMDIvMjItcmRmLXN5bnRheC1ucyMiPiA8cmRmOkRlc2NyaXB0aW9uIHJkZjphYm91dD0iIiB4bWxuczp4bXA9Imh0dHA6Ly9ucy5hZG9iZS5jb20veGFwLzEuMC8iIHhtbG5zOnhtcE1NPSJodHRwOi8vbnMuYWRvYmUuY29tL3hhcC8xLjAvbW0vIiB4bWxuczpzdFJlZj0iaHR0cDovL25zLmFkb2JlLmNvbS94YXAvMS4wL3NUeXBlL1Jlc291cmNlUmVmIyIgeG1wOkNyZWF0b3JUb29sPSJBZG9iZSBQaG90b3Nob3AgQ1M1IE1hY2ludG9zaCIgeG1wTU06SW5zdGFuY2VJRD0ieG1wLmlpZDpCREM1NkJFMjE0NEMxMUU1ODk1Q0M5MjQ0MTA4QjNDMSIgeG1wTU06RG9jdW1lbnRJRD0ieG1wLmRpZDpCREM1NkJFMzE0NEMxMUU1ODk1Q0M5MjQ0MTA4QjNDMSI+IDx4bXBNTTpEZXJpdmVkRnJvbSBzdFJlZjppbnN0YW5jZUlEPSJ4bXAuaWlkOkQzOUMzMjZCMTQ0QjExRTU4OTVDQzkyNDQxMDhCM0MxIiBzdFJlZjpkb2N1bWVudElEPSJ4bXAuZGlkOkQzOUMzMjZDMTQ0QjExRTU4OTVDQzkyNDQxMDhCM0MxIi8+IDwvcmRmOkRlc2NyaXB0aW9uPiA8L3JkZjpSREY+IDwveDp4bXBtZXRhPiA8P3hwYWNrZXQgZW5kPSJyIj8+Af/+/fz7+vn49/b19PPy8fDv7u3s6+rp6Ofm5eTj4uHg397d3Nva2djX1tXU09LR0M/OzczLysnIx8bFxMPCwcC/vr28u7q5uLe2tbSzsrGwr66trKuqqainpqWko6KhoJ+enZybmpmYl5aVlJOSkZCPjo2Mi4qJiIeGhYSDgoGAf359fHt6eXh3dnV0c3JxcG9ubWxramloZ2ZlZGNiYWBfXl1cW1pZWFdWVVRTUlFQT05NTEtKSUhHRkVEQ0JBQD8+PTw7Ojk4NzY1NDMyMTAvLi0sKyopKCcmJSQjIiEgHx4dHBsaGRgXFhUUExIREA8ODQwLCgkIBwYFBAMCAQAAIfkEAQAAAQAsAAAAAA0ADQAAAhGMj6nL3QAjVHIu6azbvPtWAAA7&quot; valign=&quot;middle&quot; border=&quot;0&quot;&gt;&lt;/a&gt;&lt;div class=&quot;geSeparator&quot;&gt;&lt;/div&gt;&lt;a title=&quot;Undo (Ctrl+Z)&quot; class=&quot;geButton&quot;&gt;&lt;div class=&quot;geSprite geSprite-undo&quot;&gt;&lt;/div&gt;&lt;/a&gt;&lt;a title=&quot;Redo (Ctrl+Y)&quot; class=&quot;geButton&quot;&gt;&lt;div class=&quot;geSprite geSprite-redo&quot;&gt;&lt;/div&gt;&lt;/a&gt;&lt;div class=&quot;geSeparator&quot;&gt;&lt;/div&gt;&lt;a title=&quot;Bold (Ctrl+B)&quot; class=&quot;geButton&quot;&gt;&lt;div class=&quot;geSprite geSprite-bold&quot;&gt;&lt;/div&gt;&lt;/a&gt;&lt;a title=&quot;Italic (Ctrl+I)&quot; class=&quot;geButton&quot;&gt;&lt;div class=&quot;geSprite geSprite-italic&quot;&gt;&lt;/div&gt;&lt;/a&gt;&lt;a title=&quot;Underline (Ctrl+U)&quot; class=&quot;geButton&quot;&gt;&lt;div class=&quot;geSprite geSprite-underline&quot;&gt;&lt;/div&gt;&lt;/a&gt;&lt;a style=&quot;position: relative; overflow: hidden; width: 30px;&quot; title=&quot;Align&quot; class=&quot;geButton&quot;&gt;&lt;div style=&quot;margin-left: -2px;&quot; class=&quot;geSprite geSprite-left&quot;&gt;&lt;/div&gt;&lt;img style=&quot;position: absolute; right: 4px; top: 5px; left: 22px;&quot; src=&quot;data:image/gif;base64,R0lGODlhDQANAIABAHt7e////yH/C1hNUCBEYXRhWE1QPD94cGFja2V0IGJlZ2luPSLvu78iIGlkPSJXNU0wTXBDZWhpSHpyZVN6TlRjemtjOWQiPz4gPHg6eG1wbWV0YSB4bWxuczp4PSJhZG9iZTpuczptZXRhLyIgeDp4bXB0az0iQWRvYmUgWE1QIENvcmUgNS4wLWMwNjAgNjEuMTM0Nzc3LCAyMDEwLzAyLzEyLTE3OjMyOjAwICAgICAgICAiPiA8cmRmOlJERiB4bWxuczpyZGY9Imh0dHA6Ly93d3cudzMub3JnLzE5OTkvMDIvMjItcmRmLXN5bnRheC1ucyMiPiA8cmRmOkRlc2NyaXB0aW9uIHJkZjphYm91dD0iIiB4bWxuczp4bXA9Imh0dHA6Ly9ucy5hZG9iZS5jb20veGFwLzEuMC8iIHhtbG5zOnhtcE1NPSJodHRwOi8vbnMuYWRvYmUuY29tL3hhcC8xLjAvbW0vIiB4bWxuczpzdFJlZj0iaHR0cDovL25zLmFkb2JlLmNvbS94YXAvMS4wL3NUeXBlL1Jlc291cmNlUmVmIyIgeG1wOkNyZWF0b3JUb29sPSJBZG9iZSBQaG90b3Nob3AgQ1M1IE1hY2ludG9zaCIgeG1wTU06SW5zdGFuY2VJRD0ieG1wLmlpZDpCREM1NkJFMjE0NEMxMUU1ODk1Q0M5MjQ0MTA4QjNDMSIgeG1wTU06RG9jdW1lbnRJRD0ieG1wLmRpZDpCREM1NkJFMzE0NEMxMUU1ODk1Q0M5MjQ0MTA4QjNDMSI+IDx4bXBNTTpEZXJpdmVkRnJvbSBzdFJlZjppbnN0YW5jZUlEPSJ4bXAuaWlkOkQzOUMzMjZCMTQ0QjExRTU4OTVDQzkyNDQxMDhCM0MxIiBzdFJlZjpkb2N1bWVudElEPSJ4bXAuZGlkOkQzOUMzMjZDMTQ0QjExRTU4OTVDQzkyNDQxMDhCM0MxIi8+IDwvcmRmOkRlc2NyaXB0aW9uPiA8L3JkZjpSREY+IDwveDp4bXBtZXRhPiA8P3hwYWNrZXQgZW5kPSJyIj8+Af/+/fz7+vn49/b19PPy8fDv7u3s6+rp6Ofm5eTj4uHg397d3Nva2djX1tXU09LR0M/OzczLysnIx8bFxMPCwcC/vr28u7q5uLe2tbSzsrGwr66trKuqqainpqWko6KhoJ+enZybmpmYl5aVlJOSkZCPjo2Mi4qJiIeGhYSDgoGAf359fHt6eXh3dnV0c3JxcG9ubWxramloZ2ZlZGNiYWBfXl1cW1pZWFdWVVRTUlFQT05NTEtKSUhHRkVEQ0JBQD8+PTw7Ojk4NzY1NDMyMTAvLi0sKyopKCcmJSQjIiEgHx4dHBsaGRgXFhUUExIREA8ODQwLCgkIBwYFBAMCAQAAIfkEAQAAAQAsAAAAAA0ADQAAAhGMj6nL3QAjVHIu6azbvPtWAAA7&quot; valign=&quot;middle&quot; border=&quot;0&quot;&gt;&lt;/a&gt;&lt;a style=&quot;position: relative; overflow: hidden; width: 30px;&quot; title=&quot;Format&quot; class=&quot;geButton&quot;&gt;&lt;div style=&quot;margin-left: -2px;&quot; class=&quot;geSprite geSprite-dots&quot;&gt;&lt;/div&gt;&lt;img style=&quot;position: absolute; right: 4px; top: 5px; left: 22px;&quot; src=&quot;data:image/gif;base64,R0lGODlhDQANAIABAHt7e////yH/C1hNUCBEYXRhWE1QPD94cGFja2V0IGJlZ2luPSLvu78iIGlkPSJXNU0wTXBDZWhpSHpyZVN6TlRjemtjOWQiPz4gPHg6eG1wbWV0YSB4bWxuczp4PSJhZG9iZTpuczptZXRhLyIgeDp4bXB0az0iQWRvYmUgWE1QIENvcmUgNS4wLWMwNjAgNjEuMTM0Nzc3LCAyMDEwLzAyLzEyLTE3OjMyOjAwICAgICAgICAiPiA8cmRmOlJERiB4bWxuczpyZGY9Imh0dHA6Ly93d3cudzMub3JnLzE5OTkvMDIvMjItcmRmLXN5bnRheC1ucyMiPiA8cmRmOkRlc2NyaXB0aW9uIHJkZjphYm91dD0iIiB4bWxuczp4bXA9Imh0dHA6Ly9ucy5hZG9iZS5jb20veGFwLzEuMC8iIHhtbG5zOnhtcE1NPSJodHRwOi8vbnMuYWRvYmUuY29tL3hhcC8xLjAvbW0vIiB4bWxuczpzdFJlZj0iaHR0cDovL25zLmFkb2JlLmNvbS94YXAvMS4wL3NUeXBlL1Jlc291cmNlUmVmIyIgeG1wOkNyZWF0b3JUb29sPSJBZG9iZSBQaG90b3Nob3AgQ1M1IE1hY2ludG9zaCIgeG1wTU06SW5zdGFuY2VJRD0ieG1wLmlpZDpCREM1NkJFMjE0NEMxMUU1ODk1Q0M5MjQ0MTA4QjNDMSIgeG1wTU06RG9jdW1lbnRJRD0ieG1wLmRpZDpCREM1NkJFMzE0NEMxMUU1ODk1Q0M5MjQ0MTA4QjNDMSI+IDx4bXBNTTpEZXJpdmVkRnJvbSBzdFJlZjppbnN0YW5jZUlEPSJ4bXAuaWlkOkQzOUMzMjZCMTQ0QjExRTU4OTVDQzkyNDQxMDhCM0MxIiBzdFJlZjpkb2N1bWVudElEPSJ4bXAuZGlkOkQzOUMzMjZDMTQ0QjExRTU4OTVDQzkyNDQxMDhCM0MxIi8+IDwvcmRmOkRlc2NyaXB0aW9uPiA8L3JkZjpSREY+IDwveDp4bXBtZXRhPiA8P3hwYWNrZXQgZW5kPSJyIj8+Af/+/fz7+vn49/b19PPy8fDv7u3s6+rp6Ofm5eTj4uHg397d3Nva2djX1tXU09LR0M/OzczLysnIx8bFxMPCwcC/vr28u7q5uLe2tbSzsrGwr66trKuqqainpqWko6KhoJ+enZybmpmYl5aVlJOSkZCPjo2Mi4qJiIeGhYSDgoGAf359fHt6eXh3dnV0c3JxcG9ubWxramloZ2ZlZGNiYWBfXl1cW1pZWFdWVVRTUlFQT05NTEtKSUhHRkVEQ0JBQD8+PTw7Ojk4NzY1NDMyMTAvLi0sKyopKCcmJSQjIiEgHx4dHBsaGRgXFhUUExIREA8ODQwLCgkIBwYFBAMCAQAAIfkEAQAAAQAsAAAAAA0ADQAAAhGMj6nL3QAjVHIu6azbvPtWAAA7&quot; valign=&quot;middle&quot; border=&quot;0&quot;&gt;&lt;/a&gt;&lt;div class=&quot;geSeparator&quot;&gt;&lt;/div&gt;&lt;a title=&quot;HTML&quot; class=&quot;geButton&quot;&gt;&lt;div class=&quot;geSprite geIcon geSprite geSprite-code&quot;&gt;&lt;/div&gt;&lt;/a&gt;&lt;div class=&quot;geSeparator&quot;&gt;&lt;/div&gt;&lt;a style=&quot;overflow: hidden; position: relative; width: 30px;&quot; title=&quot;Insert&quot; class=&quot;geLabel&quot;&gt;&lt;div style=&quot;margin-left: -4px; margin-top: -3px;&quot; class=&quot;geSprite geSprite-plus&quot;&gt;&lt;/div&gt;&lt;img style=&quot;position: absolute; right: 4px; top: 5px; left: 24px;&quot; src=&quot;data:image/gif;base64,R0lGODlhDQANAIABAHt7e////yH/C1hNUCBEYXRhWE1QPD94cGFja2V0IGJlZ2luPSLvu78iIGlkPSJXNU0wTXBDZWhpSHpyZVN6TlRjemtjOWQiPz4gPHg6eG1wbWV0YSB4bWxuczp4PSJhZG9iZTpuczptZXRhLyIgeDp4bXB0az0iQWRvYmUgWE1QIENvcmUgNS4wLWMwNjAgNjEuMTM0Nzc3LCAyMDEwLzAyLzEyLTE3OjMyOjAwICAgICAgICAiPiA8cmRmOlJERiB4bWxuczpyZGY9Imh0dHA6Ly93d3cudzMub3JnLzE5OTkvMDIvMjItcmRmLXN5bnRheC1ucyMiPiA8cmRmOkRlc2NyaXB0aW9uIHJkZjphYm91dD0iIiB4bWxuczp4bXA9Imh0dHA6Ly9ucy5hZG9iZS5jb20veGFwLzEuMC8iIHhtbG5zOnhtcE1NPSJodHRwOi8vbnMuYWRvYmUuY29tL3hhcC8xLjAvbW0vIiB4bWxuczpzdFJlZj0iaHR0cDovL25zLmFkb2JlLmNvbS94YXAvMS4wL3NUeXBlL1Jlc291cmNlUmVmIyIgeG1wOkNyZWF0b3JUb29sPSJBZG9iZSBQaG90b3Nob3AgQ1M1IE1hY2ludG9zaCIgeG1wTU06SW5zdGFuY2VJRD0ieG1wLmlpZDpCREM1NkJFMjE0NEMxMUU1ODk1Q0M5MjQ0MTA4QjNDMSIgeG1wTU06RG9jdW1lbnRJRD0ieG1wLmRpZDpCREM1NkJFMzE0NEMxMUU1ODk1Q0M5MjQ0MTA4QjNDMSI+IDx4bXBNTTpEZXJpdmVkRnJvbSBzdFJlZjppbnN0YW5jZUlEPSJ4bXAuaWlkOkQzOUMzMjZCMTQ0QjExRTU4OTVDQzkyNDQxMDhCM0MxIiBzdFJlZjpkb2N1bWVudElEPSJ4bXAuZGlkOkQzOUMzMjZDMTQ0QjExRTU4OTVDQzkyNDQxMDhCM0MxIi8+IDwvcmRmOkRlc2NyaXB0aW9uPiA8L3JkZjpSREY+IDwveDp4bXBtZXRhPiA8P3hwYWNrZXQgZW5kPSJyIj8+Af/+/fz7+vn49/b19PPy8fDv7u3s6+rp6Ofm5eTj4uHg397d3Nva2djX1tXU09LR0M/OzczLysnIx8bFxMPCwcC/vr28u7q5uLe2tbSzsrGwr66trKuqqainpqWko6KhoJ+enZybmpmYl5aVlJOSkZCPjo2Mi4qJiIeGhYSDgoGAf359fHt6eXh3dnV0c3JxcG9ubWxramloZ2ZlZGNiYWBfXl1cW1pZWFdWVVRTUlFQT05NTEtKSUhHRkVEQ0JBQD8+PTw7Ojk4NzY1NDMyMTAvLi0sKyopKCcmJSQjIiEgHx4dHBsaGRgXFhUUExIREA8ODQwLCgkIBwYFBAMCAQAAIfkEAQAAAQAsAAAAAA0ADQAAAhGMj6nL3QAjVHIu6azbvPtWAAA7&quot; valign=&quot;middle&quot; border=&quot;0&quot;&gt;&lt;/a&gt;&lt;div class=&quot;geSeparator&quot;&gt;&lt;/div&gt;&lt;a style=&quot;position: relative; overflow: hidden; width: 30px;&quot; title=&quot;Table&quot; class=&quot;geButton&quot;&gt;&lt;div style=&quot;margin-left: -2px;&quot; class=&quot;geSprite geSprite-table&quot;&gt;&lt;/div&gt;&lt;img style=&quot;position: absolute; right: 4px; top: 5px; left: 22px;&quot; src=&quot;data:image/gif;base64,R0lGODlhDQANAIABAHt7e////yH/C1hNUCBEYXRhWE1QPD94cGFja2V0IGJlZ2luPSLvu78iIGlkPSJXNU0wTXBDZWhpSHpyZVN6TlRjemtjOWQiPz4gPHg6eG1wbWV0YSB4bWxuczp4PSJhZG9iZTpuczptZXRhLyIgeDp4bXB0az0iQWRvYmUgWE1QIENvcmUgNS4wLWMwNjAgNjEuMTM0Nzc3LCAyMDEwLzAyLzEyLTE3OjMyOjAwICAgICAgICAiPiA8cmRmOlJERiB4bWxuczpyZGY9Imh0dHA6Ly93d3cudzMub3JnLzE5OTkvMDIvMjItcmRmLXN5bnRheC1ucyMiPiA8cmRmOkRlc2NyaXB0aW9uIHJkZjphYm91dD0iIiB4bWxuczp4bXA9Imh0dHA6Ly9ucy5hZG9iZS5jb20veGFwLzEuMC8iIHhtbG5zOnhtcE1NPSJodHRwOi8vbnMuYWRvYmUuY29tL3hhcC8xLjAvbW0vIiB4bWxuczpzdFJlZj0iaHR0cDovL25zLmFkb2JlLmNvbS94YXAvMS4wL3NUeXBlL1Jlc291cmNlUmVmIyIgeG1wOkNyZWF0b3JUb29sPSJBZG9iZSBQaG90b3Nob3AgQ1M1IE1hY2ludG9zaCIgeG1wTU06SW5zdGFuY2VJRD0ieG1wLmlpZDpCREM1NkJFMjE0NEMxMUU1ODk1Q0M5MjQ0MTA4QjNDMSIgeG1wTU06RG9jdW1lbnRJRD0ieG1wLmRpZDpCREM1NkJFMzE0NEMxMUU1ODk1Q0M5MjQ0MTA4QjNDMSI+IDx4bXBNTTpEZXJpdmVkRnJvbSBzdFJlZjppbnN0YW5jZUlEPSJ4bXAuaWlkOkQzOUMzMjZCMTQ0QjExRTU4OTVDQzkyNDQxMDhCM0MxIiBzdFJlZjpkb2N1bWVudElEPSJ4bXAuZGlkOkQzOUMzMjZDMTQ0QjExRTU4OTVDQzkyNDQxMDhCM0MxIi8+IDwvcmRmOkRlc2NyaXB0aW9uPiA8L3JkZjpSREY+IDwveDp4bXBtZXRhPiA8P3hwYWNrZXQgZW5kPSJyIj8+Af/+/fz7+vn49/b19PPy8fDv7u3s6+rp6Ofm5eTj4uHg397d3Nva2djX1tXU09LR0M/OzczLysnIx8bFxMPCwcC/vr28u7q5uLe2tbSzsrGwr66trKuqqainpqWko6KhoJ+enZybmpmYl5aVlJOSkZCPjo2Mi4qJiIeGhYSDgoGAf359fHt6eXh3dnV0c3JxcG9ubWxramloZ2ZlZGNiYWBfXl1cW1pZWFdWVVRTUlFQT05NTEtKSUhHRkVEQ0JBQD8+PTw7Ojk4NzY1NDMyMTAvLi0sKyopKCcmJSQjIiEgHx4dHBsaGRgXFhUUExIREA8ODQwLCgkIBwYFBAMCAQAAIfkEAQAAAQAsAAAAAA0ADQAAAhGMj6nL3QAjVHIu6azbvPtWAAA7&quot; valign=&quot;middle&quot; border=&quot;0&quot;&gt;&lt;/a&gt;&lt;/div&gt;&lt;a style=&quot;position: absolute; display: inline-block; top: 6px; right: 10px; padding: 2px; font-size: 14px; width: 16px; height: 16px; background-position: 50% 50%; background-size: 16px 16px; background-repeat: no-repeat; background-image: url(&amp;quot;data:image/png;base64,iVBORw0KGgoAAAANSUhEUgAAABAAAAAQCAMAAAAoLQ9TAAAAGXRFWHRTb2Z0d2FyZQBBZG9iZSBJbWFnZVJlYWR5ccllPAAAAyJpVFh0WE1MOmNvbS5hZG9iZS54bXAAAAAAADw/eHBhY2tldCBiZWdpbj0i77u/IiBpZD0iVzVNME1wQ2VoaUh6cmVTek5UY3prYzlkIj8+IDx4OnhtcG1ldGEgeG1sbnM6eD0iYWRvYmU6bnM6bWV0YS8iIHg6eG1wdGs9IkFkb2JlIFhNUCBDb3JlIDUuMC1jMDYwIDYxLjEzNDc3NywgMjAxMC8wMi8xMi0xNzozMjowMCAgICAgICAgIj4gPHJkZjpSREYgeG1sbnM6cmRmPSJodHRwOi8vd3d3LnczLm9yZy8xOTk5LzAyLzIyLXJkZi1zeW50YXgtbnMjIj4gPHJkZjpEZXNjcmlwdGlvbiByZGY6YWJvdXQ9IiIgeG1sbnM6eG1wPSJodHRwOi8vbnMuYWRvYmUuY29tL3hhcC8xLjAvIiB4bWxuczp4bXBNTT0iaHR0cDovL25zLmFkb2JlLmNvbS94YXAvMS4wL21tLyIgeG1sbnM6c3RSZWY9Imh0dHA6Ly9ucy5hZG9iZS5jb20veGFwLzEuMC9zVHlwZS9SZXNvdXJjZVJlZiMiIHhtcDpDcmVhdG9yVG9vbD0iQWRvYmUgUGhvdG9zaG9wIENTNSBNYWNpbnRvc2giIHhtcE1NOkluc3RhbmNlSUQ9InhtcC5paWQ6ODdCREY5REY1NkQ3MTFFNTkyNjNEMTA5NjgwODUyRTgiIHhtcE1NOkRvY3VtZW50SUQ9InhtcC5kaWQ6ODdCREY5RTA1NkQ3MTFFNTkyNjNEMTA5NjgwODUyRTgiPiA8eG1wTU06RGVyaXZlZEZyb20gc3RSZWY6aW5zdGFuY2VJRD0ieG1wLmlpZDo4N0JERjlERDU2RDcxMUU1OTI2M0QxMDk2ODA4NTJFOCIgc3RSZWY6ZG9jdW1lbnRJRD0ieG1wLmRpZDo4N0JERjlERTU2RDcxMUU1OTI2M0QxMDk2ODA4NTJFOCIvPiA8L3JkZjpEZXNjcmlwdGlvbj4gPC9yZGY6UkRGPiA8L3g6eG1wbWV0YT4gPD94cGFja2V0IGVuZD0iciI/PlnMQ/8AAAAJUExURQAAAP///3FxcTfTiAsAAAACdFJOU/8A5bcwSgAAACFJREFUeNpiYEQDDEQJMMABTAAixcQ00ALoDiPRcwABBgB6DADly9Yx8wAAAABJRU5ErkJggg==&amp;quot;);&quot; class=&quot;geButton geAdaptiveAsset&quot; title=&quot;Format (Ctrl+Shift+P)&quot;&gt;&lt;/a&gt;&lt;a style=&quot;position: absolute; display: inline-block; top: 6px; right: 30px; padding: 2px; font-size: 14px; width: 16px; height: 16px; background-position: 50% 50%; background-size: 16px 16px; background-repeat: no-repeat; background-image: url(&amp;quot;data:image/svg+xml;base64,PHN2ZyB4bWxucz0iaHR0cDovL3d3dy53My5vcmcvMjAwMC9zdmciIHdpZHRoPSIyNCIgaGVpZ2h0PSIyNCIgdmlld0JveD0iMCAwIDI0IDI0Ij48cGF0aCBkPSJNMyA1djRoMlY1aDRWM0g1Yy0xLjEgMC0yIC45LTIgMnptMiAxMEgzdjRjMCAxLjEuOSAyIDIgMmg0di0ySDV2LTR6bTE0IDRoLTR2Mmg0YzEuMSAwIDItLjkgMi0ydi00aC0ydjR6bTAtMTZoLTR2Mmg0djRoMlY1YzAtMS4xLS45LTItMi0yeiIvPjwvc3ZnPg==&amp;quot;);&quot; class=&quot;geButton geAdaptiveAsset&quot; title=&quot;Fullscreen&quot;&gt;&lt;/a&gt;&lt;/div&gt;&lt;div style=&quot;width: 12px; z-index: 1; touch-action: none; top: 69px; left: 212px; bottom: 37px;&quot; class=&quot;geHsplit&quot;&gt;&lt;/div&gt;" style="text;html=1;strokeColor=none;fillColor=none;align=left;verticalAlign=top;whiteSpace=wrap;rounded=0;labelPosition=center;verticalLabelPosition=middle;" vertex="1" parent="1">
                    <mxGeometry width="250" height="300" as="geometry"/>
                </mxCell>
                <mxCell id="28" value="&lt;h3 style=&quot;&quot;&gt;Unrealized cashflows - orderbook&lt;/h3&gt;&lt;div&gt;&lt;br&gt;&lt;/div&gt;&lt;p style=&quot;&quot;&gt;&lt;span style=&quot;background-color: initial;&quot;&gt;Spot - edge attribute&lt;/span&gt;&lt;/p&gt;&lt;ul&gt;&lt;li&gt;volume&lt;/li&gt;&lt;li&gt;count / gini&lt;/li&gt;&lt;/ul&gt;Funding / Future- node attribute&lt;br&gt;&lt;ul&gt;&lt;li&gt;volume&lt;/li&gt;&lt;li&gt;count / gini&lt;/li&gt;&lt;li&gt;period&lt;/li&gt;&lt;li&gt;rate?&lt;/li&gt;&lt;img style=&quot;width: 18px; height: 28px; padding: 0px; position: absolute; cursor: copy; left: 761px; top: 375px; opacity: 0.15; visibility: visible; display: none;&quot; title=&quot;Click to connect and clone (ctrl+click to clone, shift+click to connect). Drag to connect (ctrl+drag to clone).&quot; border=&quot;0&quot; src=&quot;data:image/svg+xml;base64,PCFET0NUWVBFIHN2ZyBQVUJMSUMgIi0vL1czQy8vRFREIFNWRyAxLjEvL0VOIiAiaHR0cDovL3d3dy53My5vcmcvR3JhcGhpY3MvU1ZHLzEuMS9EVEQvc3ZnMTEuZHRkIj48c3ZnIHhtbG5zPSJodHRwOi8vd3d3LnczLm9yZy8yMDAwL3N2ZyIgeG1sbnM6eGxpbms9Imh0dHA6Ly93d3cudzMub3JnLzE5OTkveGxpbmsiIHdpZHRoPSIxOHB4IiBoZWlnaHQ9IjI4cHgiIHZlcnNpb249IjEuMSI+PHBhdGggZD0ibSA2IDI2IEwgMTIgMjYgTCAxMiAxMiBMIDE4IDEyIEwgOSAxIEwgMSAxMiBMIDYgMTIgeiIgc3Ryb2tlPSIjZmZmIiBmaWxsPSIjMjliNmYyIi8+PC9zdmc+&quot;&gt;&lt;img style=&quot;width: 18px; height: 26px; padding: 0px; position: absolute; cursor: copy; left: 761px; top: 684px; opacity: 0.15; visibility: visible; display: none;&quot; title=&quot;Click to connect and clone (ctrl+click to clone, shift+click to connect). Drag to connect (ctrl+drag to clone).&quot; border=&quot;0&quot; src=&quot;data:image/svg+xml;base64,PCFET0NUWVBFIHN2ZyBQVUJMSUMgIi0vL1czQy8vRFREIFNWRyAxLjEvL0VOIiAiaHR0cDovL3d3dy53My5vcmcvR3JhcGhpY3MvU1ZHLzEuMS9EVEQvc3ZnMTEuZHRkIj48c3ZnIHhtbG5zPSJodHRwOi8vd3d3LnczLm9yZy8yMDAwL3N2ZyIgeG1sbnM6eGxpbms9Imh0dHA6Ly93d3cudzMub3JnLzE5OTkveGxpbmsiIHdpZHRoPSIxOHB4IiBoZWlnaHQ9IjI2cHgiIHZlcnNpb249IjEuMSI+PHBhdGggZD0ibSA2IDEgTCA2IDE0IEwgMSAxNCBMIDkgMjYgTCAxOCAxNCBMIDEyIDE0IEwgMTIgMSB6IiBzdHJva2U9IiNmZmYiIGZpbGw9IiMyOWI2ZjIiLz48L3N2Zz4=&quot;&gt;&lt;img style=&quot;width: 26px; height: 18px; padding: 0px; position: absolute; cursor: copy; left: 901px; top: 534px; opacity: 0.15; visibility: visible; display: none;&quot; title=&quot;Click to connect and clone (ctrl+click to clone, shift+click to connect). Drag to connect (ctrl+drag to clone).&quot; border=&quot;0&quot; src=&quot;data:image/svg+xml;base64,PCFET0NUWVBFIHN2ZyBQVUJMSUMgIi0vL1czQy8vRFREIFNWRyAxLjEvL0VOIiAiaHR0cDovL3d3dy53My5vcmcvR3JhcGhpY3MvU1ZHLzEuMS9EVEQvc3ZnMTEuZHRkIj48c3ZnIHhtbG5zPSJodHRwOi8vd3d3LnczLm9yZy8yMDAwL3N2ZyIgeG1sbnM6eGxpbms9Imh0dHA6Ly93d3cudzMub3JnLzE5OTkveGxpbmsiIHdpZHRoPSIyNnB4IiBoZWlnaHQ9IjE4cHgiIHZlcnNpb249IjEuMSI+PHBhdGggZD0ibSAxIDYgTCAxNCA2IEwgMTQgMSBMIDI2IDkgTCAxNCAxOCBMIDE0IDEyIEwgMSAxMiB6IiBzdHJva2U9IiNmZmYiIGZpbGw9IiMyOWI2ZjIiLz48L3N2Zz4=&quot;&gt;&lt;img style=&quot;width: 28px; height: 18px; padding: 0px; position: absolute; cursor: copy; left: 612px; top: 534px; opacity: 0.15; visibility: visible; display: none;&quot; title=&quot;Click to connect and clone (ctrl+click to clone, shift+click to connect). Drag to connect (ctrl+drag to clone).&quot; border=&quot;0&quot; src=&quot;data:image/svg+xml;base64,PCFET0NUWVBFIHN2ZyBQVUJMSUMgIi0vL1czQy8vRFREIFNWRyAxLjEvL0VOIiAiaHR0cDovL3d3dy53My5vcmcvR3JhcGhpY3MvU1ZHLzEuMS9EVEQvc3ZnMTEuZHRkIj48c3ZnIHhtbG5zPSJodHRwOi8vd3d3LnczLm9yZy8yMDAwL3N2ZyIgeG1sbnM6eGxpbms9Imh0dHA6Ly93d3cudzMub3JnLzE5OTkveGxpbmsiIHdpZHRoPSIyOHB4IiBoZWlnaHQ9IjE4cHgiIHZlcnNpb249IjEuMSI+PHBhdGggZD0ibSAxIDkgTCAxMiAxIEwgMTIgNiBMIDI2IDYgTCAyNiAxMiBMIDEyIDEyIEwgMTIgMTggeiIgc3Ryb2tlPSIjZmZmIiBmaWxsPSIjMjliNmYyIi8+PC9zdmc+&quot;&gt;&lt;/ul&gt;&lt;div style=&quot;left: 212px; bottom: 0px; right: 240px; height: 36px;&quot; class=&quot;geTabContainer geTabItem&quot;&gt;&lt;div style=&quot;width: 30px;&quot; title=&quot;Pages&quot; class=&quot;geTab geControlTab&quot;&gt;&lt;div style=&quot;background-image: url(&amp;quot;data:image/svg+xml;base64,PHN2ZyB4bWxucz0iaHR0cDovL3d3dy53My5vcmcvMjAwMC9zdmciIGhlaWdodD0iMThweCIgdmlld0JveD0iMCAwIDI0IDI0IiB3aWR0aD0iMThweCIgZmlsbD0iIzAwMDAwMCI+PHBhdGggZD0iTTAgMGgyNHYyNEgwVjB6IiBmaWxsPSJub25lIi8+PHBhdGggZD0iTTEyIDhjMS4xIDAgMi0uOSAyLTJzLS45LTItMi0yLTIgLjktMiAyIC45IDIgMiAyem0wIDJjLTEuMSAwLTIgLjktMiAycy45IDIgMiAyIDItLjkgMi0yLS45LTItMi0yem0wIDZjLTEuMSAwLTIgLjktMiAycy45IDIgMiAyIDItLjkgMi0yLS45LTItMi0yeiIvPjwvc3ZnPg==&amp;quot;); background-repeat: no-repeat; background-position: center center; background-size: 24px; position: relative; opacity: 0.5; width: 100%; height: 100%;&quot; class=&quot;geAdaptiveAsset&quot;&gt;&lt;/div&gt;&lt;/div&gt;&lt;div class=&quot;geTabScroller&quot;&gt;&lt;div draggable=&quot;true&quot; title=&quot;Page-1 (wWjZXtJfqwMmmUz9Kp7y) [1]&quot; class=&quot;geTab gePageTab geActivePage&quot;&gt;&lt;span&gt;Page-1&lt;/span&gt;&lt;div style=&quot;background-image: url(&amp;quot;data:image/svg+xml;base64,PCFET0NUWVBFIHN2ZyBQVUJMSUMgIi0vL1czQy8vRFREIFNWRyAxLjEvL0VOIiAiaHR0cDovL3d3dy53My5vcmcvR3JhcGhpY3MvU1ZHLzEuMS9EVEQvc3ZnMTEuZHRkIj48c3ZnIHhtbG5zPSJodHRwOi8vd3d3LnczLm9yZy8yMDAwL3N2ZyIgeG1sbnM6eGxpbms9Imh0dHA6Ly93d3cudzMub3JnLzE5OTkveGxpbmsiIHdpZHRoPSIxNHB4IiBoZWlnaHQ9IjEwcHgiIHZlcnNpb249IjEuMSI+PHBhdGggZD0iTSAzIDcgTCA3IDMgTCAxMSA3IiBzdHJva2U9IiM3MDcwNzAiIHN0cm9rZS13aWR0aD0iMiIgZmlsbD0ibm9uZSIvPjwvc3ZnPg==&amp;quot;); background-position: center center; background-repeat: no-repeat; background-size: 10px;&quot; class=&quot;geTabMenuButton&quot;&gt;&lt;/div&gt;&lt;/div&gt;&lt;/div&gt;&lt;div style=&quot;width: 30px;&quot; title=&quot;Insert Page&quot; class=&quot;geTab geControlTab&quot;&gt;&lt;div style=&quot;background-image: url(&amp;quot;data:image/svg+xml;base64,PHN2ZyB4bWxucz0iaHR0cDovL3d3dy53My5vcmcvMjAwMC9zdmciIHdpZHRoPSIyNCIgaGVpZ2h0PSIyNCIgdmlld0JveD0iMCAwIDI0IDI0Ij48cGF0aCBkPSJNMTkgMTNoLTZ2NmgtMnYtNkg1di0yaDZWNWgydjZoNnYyeiIvPjwvc3ZnPg==&amp;quot;); background-repeat: no-repeat; background-position: center center; background-size: 24px; position: relative; opacity: 0.5; width: 100%; height: 100%;&quot; class=&quot;geAdaptiveAsset&quot;&gt;&lt;/div&gt;&lt;/div&gt;&lt;div style=&quot;width: 30px; opacity: 0; transition: 0.2s linear;&quot; class=&quot;geTab geControlTab&quot;&gt;&lt;div style=&quot;background-image: url(&amp;quot;data:image/svg+xml;base64,PHN2ZyB4bWxucz0iaHR0cDovL3d3dy53My5vcmcvMjAwMC9zdmciIGhlaWdodD0iNDgiIHdpZHRoPSI0OCI+PHBhdGggZD0iTTI4LjA1IDM1LjMgMTYuNyAyMy45NSAyOC4wNSAxMi42bDEuNiAxLjY1LTkuNyA5LjcgOS43IDkuNzVaIi8+PC9zdmc+&amp;quot;); background-repeat: no-repeat; background-position: center center; background-size: 24px; position: relative; opacity: 0.5; width: 100%; height: 100%;&quot; class=&quot;geAdaptiveAsset&quot;&gt;&lt;/div&gt;&lt;/div&gt;&lt;div style=&quot;width: 30px; opacity: 0; transition: 0.2s linear;&quot; class=&quot;geTab geControlTab&quot;&gt;&lt;div style=&quot;background-image: url(&amp;quot;data:image/svg+xml;base64,PHN2ZyB4bWxucz0iaHR0cDovL3d3dy53My5vcmcvMjAwMC9zdmciIGhlaWdodD0iNDgiIHdpZHRoPSI0OCI+PHBhdGggZD0ibTE4Ljc1IDM1LjMtMS42LTEuNiA5LjctOS43NS05LjctOS43IDEuNi0xLjY1TDMwLjEgMjMuOTVaIi8+PC9zdmc+&amp;quot;); background-repeat: no-repeat; background-position: center center; background-size: 24px; position: relative; opacity: 0.5; width: 100%; height: 100%;&quot; class=&quot;geAdaptiveAsset&quot;&gt;&lt;/div&gt;&lt;/div&gt;&lt;/div&gt;&lt;div style=&quot;left: 0px; right: 0px; top: 30px; height: 38px;&quot; class=&quot;geToolbarContainer&quot;&gt;&lt;div class=&quot;geToolbar&quot;&gt;&lt;a style=&quot;position: relative; overflow: hidden; padding-right: 18px;&quot; title=&quot;Style&quot; class=&quot;geLabel&quot;&gt;Style&lt;img style=&quot;position: absolute; right: 1px; top: 5px;&quot; src=&quot;data:image/gif;base64,R0lGODlhDQANAIABAHt7e////yH/C1hNUCBEYXRhWE1QPD94cGFja2V0IGJlZ2luPSLvu78iIGlkPSJXNU0wTXBDZWhpSHpyZVN6TlRjemtjOWQiPz4gPHg6eG1wbWV0YSB4bWxuczp4PSJhZG9iZTpuczptZXRhLyIgeDp4bXB0az0iQWRvYmUgWE1QIENvcmUgNS4wLWMwNjAgNjEuMTM0Nzc3LCAyMDEwLzAyLzEyLTE3OjMyOjAwICAgICAgICAiPiA8cmRmOlJERiB4bWxuczpyZGY9Imh0dHA6Ly93d3cudzMub3JnLzE5OTkvMDIvMjItcmRmLXN5bnRheC1ucyMiPiA8cmRmOkRlc2NyaXB0aW9uIHJkZjphYm91dD0iIiB4bWxuczp4bXA9Imh0dHA6Ly9ucy5hZG9iZS5jb20veGFwLzEuMC8iIHhtbG5zOnhtcE1NPSJodHRwOi8vbnMuYWRvYmUuY29tL3hhcC8xLjAvbW0vIiB4bWxuczpzdFJlZj0iaHR0cDovL25zLmFkb2JlLmNvbS94YXAvMS4wL3NUeXBlL1Jlc291cmNlUmVmIyIgeG1wOkNyZWF0b3JUb29sPSJBZG9iZSBQaG90b3Nob3AgQ1M1IE1hY2ludG9zaCIgeG1wTU06SW5zdGFuY2VJRD0ieG1wLmlpZDpCREM1NkJFMjE0NEMxMUU1ODk1Q0M5MjQ0MTA4QjNDMSIgeG1wTU06RG9jdW1lbnRJRD0ieG1wLmRpZDpCREM1NkJFMzE0NEMxMUU1ODk1Q0M5MjQ0MTA4QjNDMSI+IDx4bXBNTTpEZXJpdmVkRnJvbSBzdFJlZjppbnN0YW5jZUlEPSJ4bXAuaWlkOkQzOUMzMjZCMTQ0QjExRTU4OTVDQzkyNDQxMDhCM0MxIiBzdFJlZjpkb2N1bWVudElEPSJ4bXAuZGlkOkQzOUMzMjZDMTQ0QjExRTU4OTVDQzkyNDQxMDhCM0MxIi8+IDwvcmRmOkRlc2NyaXB0aW9uPiA8L3JkZjpSREY+IDwveDp4bXBtZXRhPiA8P3hwYWNrZXQgZW5kPSJyIj8+Af/+/fz7+vn49/b19PPy8fDv7u3s6+rp6Ofm5eTj4uHg397d3Nva2djX1tXU09LR0M/OzczLysnIx8bFxMPCwcC/vr28u7q5uLe2tbSzsrGwr66trKuqqainpqWko6KhoJ+enZybmpmYl5aVlJOSkZCPjo2Mi4qJiIeGhYSDgoGAf359fHt6eXh3dnV0c3JxcG9ubWxramloZ2ZlZGNiYWBfXl1cW1pZWFdWVVRTUlFQT05NTEtKSUhHRkVEQ0JBQD8+PTw7Ojk4NzY1NDMyMTAvLi0sKyopKCcmJSQjIiEgHx4dHBsaGRgXFhUUExIREA8ODQwLCgkIBwYFBAMCAQAAIfkEAQAAAQAsAAAAAA0ADQAAAhGMj6nL3QAjVHIu6azbvPtWAAA7&quot; valign=&quot;middle&quot; border=&quot;0&quot;&gt;&lt;/a&gt;&lt;div class=&quot;geSeparator&quot;&gt;&lt;/div&gt;&lt;a style=&quot;position: relative; overflow: hidden; width: 68px; padding-right: 18px;&quot; title=&quot;Font Family&quot; class=&quot;geLabel&quot;&gt;&lt;div style=&quot;display: inline-block; overflow: hidden; text-overflow: ellipsis; max-width: 66px;&quot;&gt;Helvetica&lt;/div&gt;&lt;img style=&quot;position: absolute; right: 4px; top: 6px;&quot; src=&quot;data:image/gif;base64,R0lGODlhDQANAIABAHt7e////yH/C1hNUCBEYXRhWE1QPD94cGFja2V0IGJlZ2luPSLvu78iIGlkPSJXNU0wTXBDZWhpSHpyZVN6TlRjemtjOWQiPz4gPHg6eG1wbWV0YSB4bWxuczp4PSJhZG9iZTpuczptZXRhLyIgeDp4bXB0az0iQWRvYmUgWE1QIENvcmUgNS4wLWMwNjAgNjEuMTM0Nzc3LCAyMDEwLzAyLzEyLTE3OjMyOjAwICAgICAgICAiPiA8cmRmOlJERiB4bWxuczpyZGY9Imh0dHA6Ly93d3cudzMub3JnLzE5OTkvMDIvMjItcmRmLXN5bnRheC1ucyMiPiA8cmRmOkRlc2NyaXB0aW9uIHJkZjphYm91dD0iIiB4bWxuczp4bXA9Imh0dHA6Ly9ucy5hZG9iZS5jb20veGFwLzEuMC8iIHhtbG5zOnhtcE1NPSJodHRwOi8vbnMuYWRvYmUuY29tL3hhcC8xLjAvbW0vIiB4bWxuczpzdFJlZj0iaHR0cDovL25zLmFkb2JlLmNvbS94YXAvMS4wL3NUeXBlL1Jlc291cmNlUmVmIyIgeG1wOkNyZWF0b3JUb29sPSJBZG9iZSBQaG90b3Nob3AgQ1M1IE1hY2ludG9zaCIgeG1wTU06SW5zdGFuY2VJRD0ieG1wLmlpZDpCREM1NkJFMjE0NEMxMUU1ODk1Q0M5MjQ0MTA4QjNDMSIgeG1wTU06RG9jdW1lbnRJRD0ieG1wLmRpZDpCREM1NkJFMzE0NEMxMUU1ODk1Q0M5MjQ0MTA4QjNDMSI+IDx4bXBNTTpEZXJpdmVkRnJvbSBzdFJlZjppbnN0YW5jZUlEPSJ4bXAuaWlkOkQzOUMzMjZCMTQ0QjExRTU4OTVDQzkyNDQxMDhCM0MxIiBzdFJlZjpkb2N1bWVudElEPSJ4bXAuZGlkOkQzOUMzMjZDMTQ0QjExRTU4OTVDQzkyNDQxMDhCM0MxIi8+IDwvcmRmOkRlc2NyaXB0aW9uPiA8L3JkZjpSREY+IDwveDp4bXBtZXRhPiA8P3hwYWNrZXQgZW5kPSJyIj8+Af/+/fz7+vn49/b19PPy8fDv7u3s6+rp6Ofm5eTj4uHg397d3Nva2djX1tXU09LR0M/OzczLysnIx8bFxMPCwcC/vr28u7q5uLe2tbSzsrGwr66trKuqqainpqWko6KhoJ+enZybmpmYl5aVlJOSkZCPjo2Mi4qJiIeGhYSDgoGAf359fHt6eXh3dnV0c3JxcG9ubWxramloZ2ZlZGNiYWBfXl1cW1pZWFdWVVRTUlFQT05NTEtKSUhHRkVEQ0JBQD8+PTw7Ojk4NzY1NDMyMTAvLi0sKyopKCcmJSQjIiEgHx4dHBsaGRgXFhUUExIREA8ODQwLCgkIBwYFBAMCAQAAIfkEAQAAAQAsAAAAAA0ADQAAAhGMj6nL3QAjVHIu6azbvPtWAAA7&quot; valign=&quot;middle&quot; border=&quot;0&quot;&gt;&lt;/a&gt;&lt;div class=&quot;geSeparator&quot;&gt;&lt;/div&gt;&lt;a style=&quot;position: relative; overflow: hidden; width: 24px; padding-right: 18px;&quot; title=&quot;Font Size&quot; class=&quot;geLabel&quot;&gt;&lt;div style=&quot;display: inline-block; overflow: hidden; text-overflow: ellipsis; max-width: 24px;&quot;&gt;12&lt;/div&gt;&lt;img style=&quot;position: absolute; right: 4px; top: 6px;&quot; src=&quot;data:image/gif;base64,R0lGODlhDQANAIABAHt7e////yH/C1hNUCBEYXRhWE1QPD94cGFja2V0IGJlZ2luPSLvu78iIGlkPSJXNU0wTXBDZWhpSHpyZVN6TlRjemtjOWQiPz4gPHg6eG1wbWV0YSB4bWxuczp4PSJhZG9iZTpuczptZXRhLyIgeDp4bXB0az0iQWRvYmUgWE1QIENvcmUgNS4wLWMwNjAgNjEuMTM0Nzc3LCAyMDEwLzAyLzEyLTE3OjMyOjAwICAgICAgICAiPiA8cmRmOlJERiB4bWxuczpyZGY9Imh0dHA6Ly93d3cudzMub3JnLzE5OTkvMDIvMjItcmRmLXN5bnRheC1ucyMiPiA8cmRmOkRlc2NyaXB0aW9uIHJkZjphYm91dD0iIiB4bWxuczp4bXA9Imh0dHA6Ly9ucy5hZG9iZS5jb20veGFwLzEuMC8iIHhtbG5zOnhtcE1NPSJodHRwOi8vbnMuYWRvYmUuY29tL3hhcC8xLjAvbW0vIiB4bWxuczpzdFJlZj0iaHR0cDovL25zLmFkb2JlLmNvbS94YXAvMS4wL3NUeXBlL1Jlc291cmNlUmVmIyIgeG1wOkNyZWF0b3JUb29sPSJBZG9iZSBQaG90b3Nob3AgQ1M1IE1hY2ludG9zaCIgeG1wTU06SW5zdGFuY2VJRD0ieG1wLmlpZDpCREM1NkJFMjE0NEMxMUU1ODk1Q0M5MjQ0MTA4QjNDMSIgeG1wTU06RG9jdW1lbnRJRD0ieG1wLmRpZDpCREM1NkJFMzE0NEMxMUU1ODk1Q0M5MjQ0MTA4QjNDMSI+IDx4bXBNTTpEZXJpdmVkRnJvbSBzdFJlZjppbnN0YW5jZUlEPSJ4bXAuaWlkOkQzOUMzMjZCMTQ0QjExRTU4OTVDQzkyNDQxMDhCM0MxIiBzdFJlZjpkb2N1bWVudElEPSJ4bXAuZGlkOkQzOUMzMjZDMTQ0QjExRTU4OTVDQzkyNDQxMDhCM0MxIi8+IDwvcmRmOkRlc2NyaXB0aW9uPiA8L3JkZjpSREY+IDwveDp4bXBtZXRhPiA8P3hwYWNrZXQgZW5kPSJyIj8+Af/+/fz7+vn49/b19PPy8fDv7u3s6+rp6Ofm5eTj4uHg397d3Nva2djX1tXU09LR0M/OzczLysnIx8bFxMPCwcC/vr28u7q5uLe2tbSzsrGwr66trKuqqainpqWko6KhoJ+enZybmpmYl5aVlJOSkZCPjo2Mi4qJiIeGhYSDgoGAf359fHt6eXh3dnV0c3JxcG9ubWxramloZ2ZlZGNiYWBfXl1cW1pZWFdWVVRTUlFQT05NTEtKSUhHRkVEQ0JBQD8+PTw7Ojk4NzY1NDMyMTAvLi0sKyopKCcmJSQjIiEgHx4dHBsaGRgXFhUUExIREA8ODQwLCgkIBwYFBAMCAQAAIfkEAQAAAQAsAAAAAA0ADQAAAhGMj6nL3QAjVHIu6azbvPtWAAA7&quot; valign=&quot;middle&quot; border=&quot;0&quot;&gt;&lt;/a&gt;&lt;div class=&quot;geSeparator&quot;&gt;&lt;/div&gt;&lt;a title=&quot;Undo (Ctrl+Z)&quot; class=&quot;geButton&quot;&gt;&lt;div class=&quot;geSprite geSprite-undo&quot;&gt;&lt;/div&gt;&lt;/a&gt;&lt;a title=&quot;Redo (Ctrl+Y)&quot; class=&quot;geButton&quot;&gt;&lt;div class=&quot;geSprite geSprite-redo&quot;&gt;&lt;/div&gt;&lt;/a&gt;&lt;div class=&quot;geSeparator&quot;&gt;&lt;/div&gt;&lt;a title=&quot;Bold (Ctrl+B)&quot; class=&quot;geButton&quot;&gt;&lt;div class=&quot;geSprite geSprite-bold&quot;&gt;&lt;/div&gt;&lt;/a&gt;&lt;a title=&quot;Italic (Ctrl+I)&quot; class=&quot;geButton&quot;&gt;&lt;div class=&quot;geSprite geSprite-italic&quot;&gt;&lt;/div&gt;&lt;/a&gt;&lt;a title=&quot;Underline (Ctrl+U)&quot; class=&quot;geButton&quot;&gt;&lt;div class=&quot;geSprite geSprite-underline&quot;&gt;&lt;/div&gt;&lt;/a&gt;&lt;a style=&quot;position: relative; overflow: hidden; width: 30px;&quot; title=&quot;Align&quot; class=&quot;geButton&quot;&gt;&lt;div style=&quot;margin-left: -2px;&quot; class=&quot;geSprite geSprite-left&quot;&gt;&lt;/div&gt;&lt;img style=&quot;position: absolute; right: 4px; top: 5px; left: 22px;&quot; src=&quot;data:image/gif;base64,R0lGODlhDQANAIABAHt7e////yH/C1hNUCBEYXRhWE1QPD94cGFja2V0IGJlZ2luPSLvu78iIGlkPSJXNU0wTXBDZWhpSHpyZVN6TlRjemtjOWQiPz4gPHg6eG1wbWV0YSB4bWxuczp4PSJhZG9iZTpuczptZXRhLyIgeDp4bXB0az0iQWRvYmUgWE1QIENvcmUgNS4wLWMwNjAgNjEuMTM0Nzc3LCAyMDEwLzAyLzEyLTE3OjMyOjAwICAgICAgICAiPiA8cmRmOlJERiB4bWxuczpyZGY9Imh0dHA6Ly93d3cudzMub3JnLzE5OTkvMDIvMjItcmRmLXN5bnRheC1ucyMiPiA8cmRmOkRlc2NyaXB0aW9uIHJkZjphYm91dD0iIiB4bWxuczp4bXA9Imh0dHA6Ly9ucy5hZG9iZS5jb20veGFwLzEuMC8iIHhtbG5zOnhtcE1NPSJodHRwOi8vbnMuYWRvYmUuY29tL3hhcC8xLjAvbW0vIiB4bWxuczpzdFJlZj0iaHR0cDovL25zLmFkb2JlLmNvbS94YXAvMS4wL3NUeXBlL1Jlc291cmNlUmVmIyIgeG1wOkNyZWF0b3JUb29sPSJBZG9iZSBQaG90b3Nob3AgQ1M1IE1hY2ludG9zaCIgeG1wTU06SW5zdGFuY2VJRD0ieG1wLmlpZDpCREM1NkJFMjE0NEMxMUU1ODk1Q0M5MjQ0MTA4QjNDMSIgeG1wTU06RG9jdW1lbnRJRD0ieG1wLmRpZDpCREM1NkJFMzE0NEMxMUU1ODk1Q0M5MjQ0MTA4QjNDMSI+IDx4bXBNTTpEZXJpdmVkRnJvbSBzdFJlZjppbnN0YW5jZUlEPSJ4bXAuaWlkOkQzOUMzMjZCMTQ0QjExRTU4OTVDQzkyNDQxMDhCM0MxIiBzdFJlZjpkb2N1bWVudElEPSJ4bXAuZGlkOkQzOUMzMjZDMTQ0QjExRTU4OTVDQzkyNDQxMDhCM0MxIi8+IDwvcmRmOkRlc2NyaXB0aW9uPiA8L3JkZjpSREY+IDwveDp4bXBtZXRhPiA8P3hwYWNrZXQgZW5kPSJyIj8+Af/+/fz7+vn49/b19PPy8fDv7u3s6+rp6Ofm5eTj4uHg397d3Nva2djX1tXU09LR0M/OzczLysnIx8bFxMPCwcC/vr28u7q5uLe2tbSzsrGwr66trKuqqainpqWko6KhoJ+enZybmpmYl5aVlJOSkZCPjo2Mi4qJiIeGhYSDgoGAf359fHt6eXh3dnV0c3JxcG9ubWxramloZ2ZlZGNiYWBfXl1cW1pZWFdWVVRTUlFQT05NTEtKSUhHRkVEQ0JBQD8+PTw7Ojk4NzY1NDMyMTAvLi0sKyopKCcmJSQjIiEgHx4dHBsaGRgXFhUUExIREA8ODQwLCgkIBwYFBAMCAQAAIfkEAQAAAQAsAAAAAA0ADQAAAhGMj6nL3QAjVHIu6azbvPtWAAA7&quot; valign=&quot;middle&quot; border=&quot;0&quot;&gt;&lt;/a&gt;&lt;a style=&quot;position: relative; overflow: hidden; width: 30px;&quot; title=&quot;Format&quot; class=&quot;geButton&quot;&gt;&lt;div style=&quot;margin-left: -2px;&quot; class=&quot;geSprite geSprite-dots&quot;&gt;&lt;/div&gt;&lt;img style=&quot;position: absolute; right: 4px; top: 5px; left: 22px;&quot; src=&quot;data:image/gif;base64,R0lGODlhDQANAIABAHt7e////yH/C1hNUCBEYXRhWE1QPD94cGFja2V0IGJlZ2luPSLvu78iIGlkPSJXNU0wTXBDZWhpSHpyZVN6TlRjemtjOWQiPz4gPHg6eG1wbWV0YSB4bWxuczp4PSJhZG9iZTpuczptZXRhLyIgeDp4bXB0az0iQWRvYmUgWE1QIENvcmUgNS4wLWMwNjAgNjEuMTM0Nzc3LCAyMDEwLzAyLzEyLTE3OjMyOjAwICAgICAgICAiPiA8cmRmOlJERiB4bWxuczpyZGY9Imh0dHA6Ly93d3cudzMub3JnLzE5OTkvMDIvMjItcmRmLXN5bnRheC1ucyMiPiA8cmRmOkRlc2NyaXB0aW9uIHJkZjphYm91dD0iIiB4bWxuczp4bXA9Imh0dHA6Ly9ucy5hZG9iZS5jb20veGFwLzEuMC8iIHhtbG5zOnhtcE1NPSJodHRwOi8vbnMuYWRvYmUuY29tL3hhcC8xLjAvbW0vIiB4bWxuczpzdFJlZj0iaHR0cDovL25zLmFkb2JlLmNvbS94YXAvMS4wL3NUeXBlL1Jlc291cmNlUmVmIyIgeG1wOkNyZWF0b3JUb29sPSJBZG9iZSBQaG90b3Nob3AgQ1M1IE1hY2ludG9zaCIgeG1wTU06SW5zdGFuY2VJRD0ieG1wLmlpZDpCREM1NkJFMjE0NEMxMUU1ODk1Q0M5MjQ0MTA4QjNDMSIgeG1wTU06RG9jdW1lbnRJRD0ieG1wLmRpZDpCREM1NkJFMzE0NEMxMUU1ODk1Q0M5MjQ0MTA4QjNDMSI+IDx4bXBNTTpEZXJpdmVkRnJvbSBzdFJlZjppbnN0YW5jZUlEPSJ4bXAuaWlkOkQzOUMzMjZCMTQ0QjExRTU4OTVDQzkyNDQxMDhCM0MxIiBzdFJlZjpkb2N1bWVudElEPSJ4bXAuZGlkOkQzOUMzMjZDMTQ0QjExRTU4OTVDQzkyNDQxMDhCM0MxIi8+IDwvcmRmOkRlc2NyaXB0aW9uPiA8L3JkZjpSREY+IDwveDp4bXBtZXRhPiA8P3hwYWNrZXQgZW5kPSJyIj8+Af/+/fz7+vn49/b19PPy8fDv7u3s6+rp6Ofm5eTj4uHg397d3Nva2djX1tXU09LR0M/OzczLysnIx8bFxMPCwcC/vr28u7q5uLe2tbSzsrGwr66trKuqqainpqWko6KhoJ+enZybmpmYl5aVlJOSkZCPjo2Mi4qJiIeGhYSDgoGAf359fHt6eXh3dnV0c3JxcG9ubWxramloZ2ZlZGNiYWBfXl1cW1pZWFdWVVRTUlFQT05NTEtKSUhHRkVEQ0JBQD8+PTw7Ojk4NzY1NDMyMTAvLi0sKyopKCcmJSQjIiEgHx4dHBsaGRgXFhUUExIREA8ODQwLCgkIBwYFBAMCAQAAIfkEAQAAAQAsAAAAAA0ADQAAAhGMj6nL3QAjVHIu6azbvPtWAAA7&quot; valign=&quot;middle&quot; border=&quot;0&quot;&gt;&lt;/a&gt;&lt;div class=&quot;geSeparator&quot;&gt;&lt;/div&gt;&lt;a title=&quot;HTML&quot; class=&quot;geButton&quot;&gt;&lt;div class=&quot;geSprite geIcon geSprite geSprite-code&quot;&gt;&lt;/div&gt;&lt;/a&gt;&lt;div class=&quot;geSeparator&quot;&gt;&lt;/div&gt;&lt;a style=&quot;overflow: hidden; position: relative; width: 30px;&quot; title=&quot;Insert&quot; class=&quot;geLabel&quot;&gt;&lt;div style=&quot;margin-left: -4px; margin-top: -3px;&quot; class=&quot;geSprite geSprite-plus&quot;&gt;&lt;/div&gt;&lt;img style=&quot;position: absolute; right: 4px; top: 5px; left: 24px;&quot; src=&quot;data:image/gif;base64,R0lGODlhDQANAIABAHt7e////yH/C1hNUCBEYXRhWE1QPD94cGFja2V0IGJlZ2luPSLvu78iIGlkPSJXNU0wTXBDZWhpSHpyZVN6TlRjemtjOWQiPz4gPHg6eG1wbWV0YSB4bWxuczp4PSJhZG9iZTpuczptZXRhLyIgeDp4bXB0az0iQWRvYmUgWE1QIENvcmUgNS4wLWMwNjAgNjEuMTM0Nzc3LCAyMDEwLzAyLzEyLTE3OjMyOjAwICAgICAgICAiPiA8cmRmOlJERiB4bWxuczpyZGY9Imh0dHA6Ly93d3cudzMub3JnLzE5OTkvMDIvMjItcmRmLXN5bnRheC1ucyMiPiA8cmRmOkRlc2NyaXB0aW9uIHJkZjphYm91dD0iIiB4bWxuczp4bXA9Imh0dHA6Ly9ucy5hZG9iZS5jb20veGFwLzEuMC8iIHhtbG5zOnhtcE1NPSJodHRwOi8vbnMuYWRvYmUuY29tL3hhcC8xLjAvbW0vIiB4bWxuczpzdFJlZj0iaHR0cDovL25zLmFkb2JlLmNvbS94YXAvMS4wL3NUeXBlL1Jlc291cmNlUmVmIyIgeG1wOkNyZWF0b3JUb29sPSJBZG9iZSBQaG90b3Nob3AgQ1M1IE1hY2ludG9zaCIgeG1wTU06SW5zdGFuY2VJRD0ieG1wLmlpZDpCREM1NkJFMjE0NEMxMUU1ODk1Q0M5MjQ0MTA4QjNDMSIgeG1wTU06RG9jdW1lbnRJRD0ieG1wLmRpZDpCREM1NkJFMzE0NEMxMUU1ODk1Q0M5MjQ0MTA4QjNDMSI+IDx4bXBNTTpEZXJpdmVkRnJvbSBzdFJlZjppbnN0YW5jZUlEPSJ4bXAuaWlkOkQzOUMzMjZCMTQ0QjExRTU4OTVDQzkyNDQxMDhCM0MxIiBzdFJlZjpkb2N1bWVudElEPSJ4bXAuZGlkOkQzOUMzMjZDMTQ0QjExRTU4OTVDQzkyNDQxMDhCM0MxIi8+IDwvcmRmOkRlc2NyaXB0aW9uPiA8L3JkZjpSREY+IDwveDp4bXBtZXRhPiA8P3hwYWNrZXQgZW5kPSJyIj8+Af/+/fz7+vn49/b19PPy8fDv7u3s6+rp6Ofm5eTj4uHg397d3Nva2djX1tXU09LR0M/OzczLysnIx8bFxMPCwcC/vr28u7q5uLe2tbSzsrGwr66trKuqqainpqWko6KhoJ+enZybmpmYl5aVlJOSkZCPjo2Mi4qJiIeGhYSDgoGAf359fHt6eXh3dnV0c3JxcG9ubWxramloZ2ZlZGNiYWBfXl1cW1pZWFdWVVRTUlFQT05NTEtKSUhHRkVEQ0JBQD8+PTw7Ojk4NzY1NDMyMTAvLi0sKyopKCcmJSQjIiEgHx4dHBsaGRgXFhUUExIREA8ODQwLCgkIBwYFBAMCAQAAIfkEAQAAAQAsAAAAAA0ADQAAAhGMj6nL3QAjVHIu6azbvPtWAAA7&quot; valign=&quot;middle&quot; border=&quot;0&quot;&gt;&lt;/a&gt;&lt;div class=&quot;geSeparator&quot;&gt;&lt;/div&gt;&lt;a style=&quot;position: relative; overflow: hidden; width: 30px;&quot; title=&quot;Table&quot; class=&quot;geButton&quot;&gt;&lt;div style=&quot;margin-left: -2px;&quot; class=&quot;geSprite geSprite-table&quot;&gt;&lt;/div&gt;&lt;img style=&quot;position: absolute; right: 4px; top: 5px; left: 22px;&quot; src=&quot;data:image/gif;base64,R0lGODlhDQANAIABAHt7e////yH/C1hNUCBEYXRhWE1QPD94cGFja2V0IGJlZ2luPSLvu78iIGlkPSJXNU0wTXBDZWhpSHpyZVN6TlRjemtjOWQiPz4gPHg6eG1wbWV0YSB4bWxuczp4PSJhZG9iZTpuczptZXRhLyIgeDp4bXB0az0iQWRvYmUgWE1QIENvcmUgNS4wLWMwNjAgNjEuMTM0Nzc3LCAyMDEwLzAyLzEyLTE3OjMyOjAwICAgICAgICAiPiA8cmRmOlJERiB4bWxuczpyZGY9Imh0dHA6Ly93d3cudzMub3JnLzE5OTkvMDIvMjItcmRmLXN5bnRheC1ucyMiPiA8cmRmOkRlc2NyaXB0aW9uIHJkZjphYm91dD0iIiB4bWxuczp4bXA9Imh0dHA6Ly9ucy5hZG9iZS5jb20veGFwLzEuMC8iIHhtbG5zOnhtcE1NPSJodHRwOi8vbnMuYWRvYmUuY29tL3hhcC8xLjAvbW0vIiB4bWxuczpzdFJlZj0iaHR0cDovL25zLmFkb2JlLmNvbS94YXAvMS4wL3NUeXBlL1Jlc291cmNlUmVmIyIgeG1wOkNyZWF0b3JUb29sPSJBZG9iZSBQaG90b3Nob3AgQ1M1IE1hY2ludG9zaCIgeG1wTU06SW5zdGFuY2VJRD0ieG1wLmlpZDpCREM1NkJFMjE0NEMxMUU1ODk1Q0M5MjQ0MTA4QjNDMSIgeG1wTU06RG9jdW1lbnRJRD0ieG1wLmRpZDpCREM1NkJFMzE0NEMxMUU1ODk1Q0M5MjQ0MTA4QjNDMSI+IDx4bXBNTTpEZXJpdmVkRnJvbSBzdFJlZjppbnN0YW5jZUlEPSJ4bXAuaWlkOkQzOUMzMjZCMTQ0QjExRTU4OTVDQzkyNDQxMDhCM0MxIiBzdFJlZjpkb2N1bWVudElEPSJ4bXAuZGlkOkQzOUMzMjZDMTQ0QjExRTU4OTVDQzkyNDQxMDhCM0MxIi8+IDwvcmRmOkRlc2NyaXB0aW9uPiA8L3JkZjpSREY+IDwveDp4bXBtZXRhPiA8P3hwYWNrZXQgZW5kPSJyIj8+Af/+/fz7+vn49/b19PPy8fDv7u3s6+rp6Ofm5eTj4uHg397d3Nva2djX1tXU09LR0M/OzczLysnIx8bFxMPCwcC/vr28u7q5uLe2tbSzsrGwr66trKuqqainpqWko6KhoJ+enZybmpmYl5aVlJOSkZCPjo2Mi4qJiIeGhYSDgoGAf359fHt6eXh3dnV0c3JxcG9ubWxramloZ2ZlZGNiYWBfXl1cW1pZWFdWVVRTUlFQT05NTEtKSUhHRkVEQ0JBQD8+PTw7Ojk4NzY1NDMyMTAvLi0sKyopKCcmJSQjIiEgHx4dHBsaGRgXFhUUExIREA8ODQwLCgkIBwYFBAMCAQAAIfkEAQAAAQAsAAAAAA0ADQAAAhGMj6nL3QAjVHIu6azbvPtWAAA7&quot; valign=&quot;middle&quot; border=&quot;0&quot;&gt;&lt;/a&gt;&lt;/div&gt;&lt;a style=&quot;position: absolute; display: inline-block; top: 6px; right: 10px; padding: 2px; font-size: 14px; width: 16px; height: 16px; background-position: 50% 50%; background-size: 16px 16px; background-repeat: no-repeat; background-image: url(&amp;quot;data:image/png;base64,iVBORw0KGgoAAAANSUhEUgAAABAAAAAQCAMAAAAoLQ9TAAAAGXRFWHRTb2Z0d2FyZQBBZG9iZSBJbWFnZVJlYWR5ccllPAAAAyJpVFh0WE1MOmNvbS5hZG9iZS54bXAAAAAAADw/eHBhY2tldCBiZWdpbj0i77u/IiBpZD0iVzVNME1wQ2VoaUh6cmVTek5UY3prYzlkIj8+IDx4OnhtcG1ldGEgeG1sbnM6eD0iYWRvYmU6bnM6bWV0YS8iIHg6eG1wdGs9IkFkb2JlIFhNUCBDb3JlIDUuMC1jMDYwIDYxLjEzNDc3NywgMjAxMC8wMi8xMi0xNzozMjowMCAgICAgICAgIj4gPHJkZjpSREYgeG1sbnM6cmRmPSJodHRwOi8vd3d3LnczLm9yZy8xOTk5LzAyLzIyLXJkZi1zeW50YXgtbnMjIj4gPHJkZjpEZXNjcmlwdGlvbiByZGY6YWJvdXQ9IiIgeG1sbnM6eG1wPSJodHRwOi8vbnMuYWRvYmUuY29tL3hhcC8xLjAvIiB4bWxuczp4bXBNTT0iaHR0cDovL25zLmFkb2JlLmNvbS94YXAvMS4wL21tLyIgeG1sbnM6c3RSZWY9Imh0dHA6Ly9ucy5hZG9iZS5jb20veGFwLzEuMC9zVHlwZS9SZXNvdXJjZVJlZiMiIHhtcDpDcmVhdG9yVG9vbD0iQWRvYmUgUGhvdG9zaG9wIENTNSBNYWNpbnRvc2giIHhtcE1NOkluc3RhbmNlSUQ9InhtcC5paWQ6ODdCREY5REY1NkQ3MTFFNTkyNjNEMTA5NjgwODUyRTgiIHhtcE1NOkRvY3VtZW50SUQ9InhtcC5kaWQ6ODdCREY5RTA1NkQ3MTFFNTkyNjNEMTA5NjgwODUyRTgiPiA8eG1wTU06RGVyaXZlZEZyb20gc3RSZWY6aW5zdGFuY2VJRD0ieG1wLmlpZDo4N0JERjlERDU2RDcxMUU1OTI2M0QxMDk2ODA4NTJFOCIgc3RSZWY6ZG9jdW1lbnRJRD0ieG1wLmRpZDo4N0JERjlERTU2RDcxMUU1OTI2M0QxMDk2ODA4NTJFOCIvPiA8L3JkZjpEZXNjcmlwdGlvbj4gPC9yZGY6UkRGPiA8L3g6eG1wbWV0YT4gPD94cGFja2V0IGVuZD0iciI/PlnMQ/8AAAAJUExURQAAAP///3FxcTfTiAsAAAACdFJOU/8A5bcwSgAAACFJREFUeNpiYEQDDEQJMMABTAAixcQ00ALoDiPRcwABBgB6DADly9Yx8wAAAABJRU5ErkJggg==&amp;quot;);&quot; class=&quot;geButton geAdaptiveAsset&quot; title=&quot;Format (Ctrl+Shift+P)&quot;&gt;&lt;/a&gt;&lt;a style=&quot;position: absolute; display: inline-block; top: 6px; right: 30px; padding: 2px; font-size: 14px; width: 16px; height: 16px; background-position: 50% 50%; background-size: 16px 16px; background-repeat: no-repeat; background-image: url(&amp;quot;data:image/svg+xml;base64,PHN2ZyB4bWxucz0iaHR0cDovL3d3dy53My5vcmcvMjAwMC9zdmciIHdpZHRoPSIyNCIgaGVpZ2h0PSIyNCIgdmlld0JveD0iMCAwIDI0IDI0Ij48cGF0aCBkPSJNMyA1djRoMlY1aDRWM0g1Yy0xLjEgMC0yIC45LTIgMnptMiAxMEgzdjRjMCAxLjEuOSAyIDIgMmg0di0ySDV2LTR6bTE0IDRoLTR2Mmg0YzEuMSAwIDItLjkgMi0ydi00aC0ydjR6bTAtMTZoLTR2Mmg0djRoMlY1YzAtMS4xLS45LTItMi0yeiIvPjwvc3ZnPg==&amp;quot;);&quot; class=&quot;geButton geAdaptiveAsset&quot; title=&quot;Fullscreen&quot;&gt;&lt;/a&gt;&lt;/div&gt;&lt;div style=&quot;width: 12px; z-index: 1; touch-action: none; top: 69px; left: 212px; bottom: 37px;&quot; class=&quot;geHsplit&quot;&gt;&lt;/div&gt;" style="text;html=1;strokeColor=none;fillColor=none;align=left;verticalAlign=top;whiteSpace=wrap;rounded=0;labelPosition=center;verticalLabelPosition=middle;" vertex="1" parent="1">
                    <mxGeometry x="280" width="280" height="290" as="geometry"/>
                </mxCell>
            </root>
        </mxGraphModel>
    </diagram>
</mxfile>